<svg width="6rem" viewBox="0 0 593 324">
    <g fill="none" fill-rule="evenodd">
        <g fill="#fff">
            <path d="M152.2 252.107l32.85-125.512h35.837l48.081 68.362 17.82-68.362h34.343l-30.96 125.512h-33.049l-51.267-71.239-17.72 71.239zM459.204 126.595l-7.367 32.246H380.76s-20.208 1.191-27.176 20.539c-6.969 19.347-7.964 40.084 7.964 40.084h70.678l-8.56 32.544h-79.639s-31.656-6.251-33.547-38.398c-1.892-32.147 16.923-66.973 42.706-80.665 0 0 15.031-6.449 31.656-6.449 16.624 0 74.362.1 74.362.1zM514.85 158.94h69.684l7.366-32.246h-72.968a65.623 65.623 0 0 0-28.57 6.45c-23.394 12.402-43.403 42.168-45.593 71.636l-.298.496h.199a61.214 61.214 0 0 0-.1 8.533c1.792 32.146 33.548 38.397 33.548 38.397h79.638l8.56-32.543h-70.678c-8.561 0-12.145-5.954-12.643-14.486h87.801l7.865-30.361h-88.797c8.263-14.883 24.987-15.875 24.987-15.875z"></path>
            </g><path fill="#fff" d="M127.867 62h-9.427L69 104.951h38.308L69 252h58.867L175 62z"></path><path fill="#29ABE2" d="M156.695 31.428c46.608 0 87.828 25.158 112.878 63.74H307C282.748 39.781 226.159 1 160.387 1 72.36 1 1 70.309 1 155.826A151.001 151.001 0 0 0 33.137 249a160.343 160.343 0 0 1-14.472-67.121c-.1-83.031 61.78-150.45 138.03-150.45z"></path></g></svg>